<?xml version="1.0" encoding="utf-8"?>
<svg xmlns="http://www.w3.org/2000/svg" viewBox="0 0 32 32" width="96" height="96">
  <path d="M5 7C4.449219 7 4 7.449219 4 8C4 8.550781 4.449219 9 5 9L7.21875 9L9.84375 19.5C10.066406 20.390625 10.863281 21 11.78125 21L23.25 21C24.152344 21 24.917969 20.402344 25.15625 19.53125L27.75 10L11 10L11.5 12L25.15625 12L23.25 19L11.78125 19L9.15625 8.5C8.933594 7.609375 8.136719 7 7.21875 7 Z M 22 21C20.355469 21 19 22.355469 19 24C19 25.644531 20.355469 27 22 27C23.644531 27 25 25.644531 25 24C25 22.355469 23.644531 21 22 21 Z M 13 21C11.355469 21 10 22.355469 10 24C10 25.644531 11.355469 27 13 27C14.644531 27 16 25.644531 16 24C16 22.355469 14.644531 21 13 21 Z M 13 23C13.5625 23 14 23.4375 14 24C14 24.5625 13.5625 25 13 25C12.4375 25 12 24.5625 12 24C12 23.4375 12.4375 23 13 23 Z M 22 23C22.5625 23 23 23.4375 23 24C23 24.5625 22.5625 25 22 25C21.4375 25 21 24.5625 21 24C21 23.4375 21.4375 23 22 23Z" fill="#1D1D1B" />
</svg>